<?xml version="1.0" encoding="UTF-8" standalone="no"?>
<svg width="319px" height="180px" version="1.1" xmlns="http://www.w3.org/2000/svg" xmlns:xlink="http://www.w3.org/1999/xlink" xmlns:mei="http://www.music-encoding.org/ns/mei" overflow="visible">
   <desc>Engraved by Verovio 3.10.0-dev-bcfa1ca-dirty</desc>
   <defs>
      <symbol id="E050-4dp6a2" viewBox="0 0 1000 1000" overflow="inherit">
         <path transform="scale(1,-1)" d="M562 -21c0 89 -65 150 -155 150c7 -44 34 -203 55 -323c71 29 100 102 100 173zM420 -206l-58 329c-59 -14 -104 -63 -104 -124c0 -49 22 -75 61 -99c12 -8 22 -13 22 -22s-9 -13 -17 -13c-80 0 -135 96 -135 166c0 94 62 190 153 217c-7 41 -14 88 -23 142 c-15 -15 -31 -29 -48 -44c-88 -76 -174 -185 -174 -307c0 -151 122 -251 265 -251c19 0 38 2 58 6zM332 822c-8 -31 -11 -65 -11 -102c0 -42 5 -81 11 -121c69 68 146 146 146 250c0 69 -24 118 -39 118c-52 0 -98 -105 -107 -145zM122 -513c0 66 45 123 115 123 c75 0 116 -57 116 -111c0 -64 -47 -104 -94 -111c-3 -1 -5 -2 -5 -4c0 -1 2 -2 3 -3c2 0 23 -5 47 -5c101 0 154 55 154 159c0 53 -11 123 -30 219c-23 -4 -50 -7 -79 -7c-186 0 -349 147 -349 334c0 200 126 321 217 406c21 17 73 70 74 71c-17 112 -22 161 -22 215 c0 84 18 212 82 288c33 39 64 51 71 51c18 0 47 -35 71 -86c16 -36 44 -110 44 -201c0 -159 -73 -284 -179 -395c9 -56 19 -115 29 -175c146 0 253 -102 253 -253c0 -103 -73 -205 -171 -237c6 -39 12 -69 15 -89c10 -57 16 -102 16 -141c0 -63 -14 -129 -68 -167 c-36 -22 -77 -34 -124 -34c-135 0 -186 87 -186 153z" />
      </symbol>
      <symbol id="E262-4dp6a2" viewBox="0 0 1000 1000" overflow="inherit">
         <path transform="scale(1,-1)" d="M233 105l-38 -7v-165l33 7h2c8 0 14 -6 14 -14v-59c0 -6 -5 -13 -11 -14l-38 -7v-147h-28v141l-89 -18v-155h-28v149l-33 -7h-3c-8 0 -14 6 -14 14v58c0 6 5 13 11 14l39 8v165l-33 -7h-3c-8 0 -14 6 -14 14v-2v58v2c0 6 5 13 11 14l39 8v147h28v-141l89 18v155h28v-149 l33 7h2c8 0 14 -6 14 -14v-59c0 -6 -5 -13 -11 -14zM78 74v-166l89 19v165z" />
      </symbol>
   </defs>
   <style type="text/css">g.page-margin{font-family:Times;} g.ending, g.fing, g.reh, g.tempo{font-weight:bold;} g.dir, g.dynam, g.mNum{font-style:italic;} g.label{font-weight:normal;}</style>
   <svg class="definition-scale" color="black" viewBox="0 0 3190 1800">
      <g class="page-margin" transform="translate(0, 0)">
         <g id="musre60" class="mdiv pageMilestone" />
         <g id="sz57cc6" class="score pageMilestone" />
         <g id="sbqjjba" class="system">
            <g id="squioa" class="section systemMilestone" />
            <g id="s3xrln8" class="staff">
               <path d="M0 540 L3193 540" stroke="currentColor" stroke-width="18" />
               <path d="M0 720 L3193 720" stroke="currentColor" stroke-width="18" />
               <path d="M0 900 L3193 900" stroke="currentColor" stroke-width="18" />
               <path d="M0 1080 L3193 1080" stroke="currentColor" stroke-width="18" />
               <path d="M0 1260 L3193 1260" stroke="currentColor" stroke-width="18" />
               <g id="c20kyba" class="clef">
                  <use xlink:href="#E050-4dp6a2" x="90" y="1080" height="720px" width="720px" />
               </g>
               <g id="k3zhdo4" class="keySig">
                  <use xlink:href="#E262-4dp6a2" x="730" y="540" height="720px" width="720px" />
                  <use xlink:href="#E262-4dp6a2" x="942" y="810" height="720px" width="720px" />
                  <use xlink:href="#E262-4dp6a2" x="1154" y="450" height="720px" width="720px" />
                  <use xlink:href="#E262-4dp6a2" x="1366" y="720" height="720px" width="720px" />
                  <use xlink:href="#E262-4dp6a2" x="1578" y="990" height="720px" width="720px" />
               </g>
               <g id="lk2j5zn" class="layer" />
            </g>
            <g id="s8rh6fu" class="systemMilestoneEnd squioa" />
         </g>
         <g id="p1g3td5" class="pageMilestoneEnd sz57cc6" />
         <g id="pxovm0b" class="pageMilestoneEnd musre60" />
         <g id="pmqqus4" class="pgHead autogenerated" />
      </g>
   </svg>
</svg>
