<svg xmlns="http://www.w3.org/2000/svg" width="1174" height="201.8" viewBox="-10 -10 1174 201.8"><style>text { font-family: Roboto, Arial, sans-serif !important; }</style>
  <g transform="translate(0 0) scale(1)">
    <!---->
    <!---->
    <!---->
    <!---->
    <path class="click-through" d="M 37.4 173.5 C 96.2 165.3, 77.3 89.7, 136.1 81.5" fill="" fill-opacity="0" stroke="grey" stroke-opacity="0.8" stroke-width="6" stroke-dasharray="" transform=""/>
    <!---->
    <path class="click-through" d="M 136.1 81.5 C 195.0 73.3, 197.6 151.1, 256.4 142.8" fill="" fill-opacity="0" stroke="grey" stroke-opacity="0.8" stroke-width="6" stroke-dasharray="" transform=""/>
    <!---->
    <path class="click-through" d="M 256.4 142.8 C 315.2 134.6, 296.3 59.1, 355.2 50.8" fill="" fill-opacity="0" stroke="grey" stroke-opacity="0.8" stroke-width="6" stroke-dasharray="" transform=""/>
    <!---->
    <path class="click-through" d="M 355.2 50.8 C 414.0 42.6, 416.6 120.4, 475.4 112.2" fill="" fill-opacity="0" stroke="grey" stroke-opacity="0.8" stroke-width="6" stroke-dasharray="" transform=""/>
    <!---->
    <path class="click-through" d="M 475.4 112.2 C 534.3 103.9, 536.9 181.8, 595.7 173.5" fill="" fill-opacity="0" stroke="grey" stroke-opacity="0.8" stroke-width="6" stroke-dasharray="" transform=""/>
    <!---->
    <path class="click-through" d="M 595.7 173.5 C 654.5 165.3, 635.6 89.7, 694.5 81.5" fill="" fill-opacity="0" stroke="lightgreen" stroke-opacity="0.8" stroke-width="6" stroke-dasharray="" transform=""/>
    <!---->
    <path class="click-through" d="M 694.5 81.5 C 753.3 73.3, 755.9 151.1, 814.7 142.8" fill="" fill-opacity="0" stroke="lightgreen" stroke-opacity="0.8" stroke-width="6" stroke-dasharray="" transform=""/>
    <!---->
    <path class="click-through" d="M 814.7 142.8 C 873.5 134.6, 854.7 59.1, 913.5 50.8" fill="" fill-opacity="0" stroke="lightgreen" stroke-opacity="0.8" stroke-width="6" stroke-dasharray="" transform=""/>
    <!---->
    <path class="click-through" d="M 913.5 50.8 C 972.3 42.6, 974.9 120.4, 1033.8 112.2" fill="" fill-opacity="0" stroke="lightgreen" stroke-opacity="0.8" stroke-width="6" stroke-dasharray="" transform=""/>
    <!---->
    <path class="click-through" d="M 1033.8 112.2 C 1092.6 103.9, 1095.2 181.8, 1154.0 173.5" fill="" fill-opacity="0" stroke="lightgreen" stroke-opacity="0.8" stroke-width="6" stroke-dasharray="" transform=""/>
    <!---->
    <!---->
    <!---->
    <!---->
    <!---->
    <!---->
    <!---->
    <!---->
    <!---->
    <!---->
    <!---->
  </g>
</svg>