
    <svg xmlns="http://www.w3.org/2000/svg" viewBox="0 0 1000 1000" preserveAspectRatio="xMidYMid meet">

    <path id="background" d="
        M877.69 644.44 C886.10 623.47 891.56 606.57 897.10 587.00 C902.15 567.41 906.30 547.45 909.44 527.09 C912.09 506.84 913.83 486.25 914.44 465.30 C914.58 444.58 913.78 423.52 911.66 402.25 C909.12 381.31 905.54 360.01 900.45 338.79 C895.00 317.97 888.31 296.82 880.01 276.16 C871.41 255.95 861.32 235.57 849.66 216.13 C837.77 197.16 824.18 178.33 809.23 160.85 C794.09 143.84 777.17 127.37 759.24 112.55 C741.16 98.20 721.37 84.80 700.96 73.22 C680.44 62.11 658.44 52.30 636.20 44.38 C613.89 36.93 593.34 31.22 567.07 27.04 C540.73 23.45 507.43 21.11 477.95 22.24 C448.48 24.11 418.38 28.91 389.84 36.05 C361.41 43.92 333.08 54.69 306.72 67.35 C280.58 80.72 255.20 96.79 232.04 114.25 C209.20 132.40 187.70 152.89 168.54 174.27 C149.80 196.28 132.83 220.21 118.21 244.55 C104.12 269.45 92.08 295.75 82.31 322.09 C73.15 348.85 66.20 376.53 61.36 403.90 C57.22 431.58 55.30 459.68 55.32 487.25 C56.07 514.95 58.99 542.65 63.65 569.67 C69.07 596.63 76.50 623.26 85.54 649.10 C95.30 674.70 106.61 700.02 119.99 723.84 C134.01 747.27 150.04 770.33 167.80 790.96 C186.13 811.12 206.98 830.09 228.56 846.54 C250.65 862.45 274.79 876.64 299.09 888.30 C323.84 899.36 350.08 908.32 375.98 914.88 C402.23 920.78 429.39 924.36 455.79 925.77 C482.43 926.46 509.39 924.79 535.27 921.23 C561.26 916.91 587.05 910.33 611.53 902.17 C635.99 893.24 659.78 882.24 682.16 869.97 C704.35 856.95 725.53 842.14 745.26 826.31 C764.64 809.81 782.75 791.82 799.43 773.01 C815.62 753.63 830.39 733.10 843.77 711.84 C856.51 690.18 868.69 665.26 877.69 644.44 Z
        " 
        fill="#F1F1F1" 
        />

    <path id="background" d="
        M 500.000000 204.320000 A 0.000000 0.000000 0 1 0 500.000000 204.320000 A 0.000000 0.000000 0 1 0 500.000000 204.320000 Z
        " 
        fill="red" 
        />
        
      <path id="minute-handle" d="
      M736.79 592.93 C742.54 579.90 746.23 569.33 750.09 557.08 C753.84 544.83 757.04 532.30 759.61 519.45 C762.06 506.64 763.98 493.53 765.14 480.13 C766.20 466.78 766.70 453.11 766.26 439.23 C765.72 425.42 764.53 411.26 762.21 397.09 C759.80 383.01 756.56 368.60 752.04 354.48 C747.45 340.47 741.80 326.26 734.85 312.71 C727.85 299.27 719.58 285.89 710.15 273.52 C700.68 261.25 689.84 249.37 678.11 238.76 C666.34 228.26 653.26 218.49 639.59 210.13 C625.90 201.88 611.06 194.66 595.96 188.92 C580.83 183.28 566.85 178.90 548.84 175.97 C530.81 173.17 507.97 171.15 487.73 171.97 C467.48 172.94 446.81 176.23 427.27 181.34 C407.75 186.62 388.40 194.16 370.49 203.16 C352.63 212.33 335.45 223.56 319.92 235.86 C304.45 248.32 290.09 262.56 277.46 277.46 C264.93 292.50 253.80 308.97 244.39 325.73 C235.11 342.62 227.42 360.53 221.36 378.43 C215.44 396.43 211.20 415.07 208.46 433.46 C205.87 451.91 204.94 470.65 205.34 488.97 C205.91 507.33 208.06 525.67 211.39 543.50 C214.89 561.33 219.82 578.90 225.84 595.93 C232.02 612.91 239.18 629.76 247.96 645.52 C256.88 661.18 267.20 676.61 278.97 690.21 C290.88 703.70 304.67 716.21 319.07 726.88 C333.59 737.43 349.61 746.59 365.80 753.92 C382.09 761.10 399.45 766.65 416.58 770.45 C433.79 774.10 451.60 775.98 468.87 776.31 C486.19 776.48 503.68 774.87 520.38 771.94 C537.11 768.84 553.62 764.07 569.19 758.23 C584.77 752.22 599.80 744.73 613.84 736.40 C627.84 727.90 641.08 718.14 653.33 707.75 C665.50 697.20 676.76 685.65 687.08 673.59 C697.29 661.40 706.54 648.43 714.90 635.03 C723.12 621.53 730.90 605.93 736.79 592.93 Z
      M 517.920000 205.440000 A 17.920000 17.920000 0 1 0 482.080000 205.440000 A 17.920000 17.920000 0 1 0 517.920000 205.440000 Z
      " 
      fill="#5A5A5A" 
      fill-rule="evenodd"/>

      <path id="hour-handle" d="
      M670.33 538.88 C673.12 529.47 674.72 521.95 676.36 513.22 C678.00 504.49 679.30 495.61 680.17 486.50 C681.03 477.39 681.57 468.09 681.56 458.56 C681.54 449.03 681.17 439.26 680.07 429.33 C678.97 419.40 677.42 409.18 674.95 398.99 C672.48 388.81 669.39 378.35 665.26 368.21 C661.12 358.08 656.15 347.81 650.13 338.20 C644.12 328.59 637.09 319.09 629.17 310.54 C621.25 302.00 612.26 293.88 602.62 286.90 C592.98 279.93 582.35 273.69 571.35 268.68 C560.36 263.68 548.54 259.65 536.65 256.86 C524.76 254.08 513.81 252.16 500.00 251.97 C486.19 251.78 468.83 252.74 453.78 255.73 C438.73 258.72 423.64 263.65 409.69 269.90 C395.74 276.15 382.24 284.21 370.08 293.23 C357.92 302.26 346.61 312.85 336.74 324.05 C326.88 335.25 318.16 347.70 310.87 360.42 C303.59 373.13 297.64 386.75 293.05 400.34 C288.45 413.92 285.27 428.06 283.30 441.94 C281.33 455.81 280.76 469.91 281.23 483.61 C281.71 497.30 283.49 510.94 286.15 524.10 C288.81 537.25 292.64 550.15 297.22 562.55 C301.80 574.95 307.38 586.96 313.63 598.50 C319.88 610.04 326.72 621.43 334.74 631.79 C342.77 642.14 351.76 652.22 361.75 660.65 C371.75 669.07 383.12 676.45 394.73 682.33 C406.35 688.20 418.96 692.76 431.45 695.89 C443.95 699.02 457.03 700.69 469.69 701.09 C482.35 701.48 495.21 700.41 507.42 698.26 C519.63 696.11 531.68 692.57 542.96 688.20 C554.23 683.83 565.06 678.23 575.05 672.02 C585.05 665.82 594.40 658.60 602.93 650.97 C611.46 643.34 619.23 634.93 626.25 626.25 C633.27 617.57 639.49 608.33 645.05 598.89 C650.61 589.45 655.39 579.64 659.61 569.64 C663.82 559.63 667.54 548.28 670.33 538.88 Z
      M 532.480000 321.360000 A 32.480000 32.480000 0 1 0 467.520000 321.360000 A 32.480000 32.480000 0 1 0 532.480000 321.360000 Z
      " fill="#1E1E1E" fill-rule="evenodd" />
    </svg>

