<?xml version="1.0" encoding="UTF-8" standalone="no"?>
<svg
   width="210mm"
   height="297mm"
   viewBox="-10 -10 793.70079 1122.5197"
   version="1.1"
   id="svg13"
   sodipodi:docname="SVG.svg"
   inkscape:version="1.4 (e7c3feb1, 2024-10-09)"
   xmlns:inkscape="http://www.inkscape.org/namespaces/inkscape"
   xmlns:sodipodi="http://sodipodi.sourceforge.net/DTD/sodipodi-0.dtd"
   xmlns="http://www.w3.org/2000/svg"
   xmlns:svg="http://www.w3.org/2000/svg">
  <defs
     id="defs13" />
  <sodipodi:namedview
     id="namedview13"
     pagecolor="#ffffff"
     bordercolor="#000000"
     borderopacity="0.25"
     inkscape:showpageshadow="2"
     inkscape:pageopacity="0.0"
     inkscape:pagecheckerboard="0"
     inkscape:deskcolor="#d1d1d1"
     showgrid="true"
     inkscape:document-units="cm"
     inkscape:zoom="0.8081736"
     inkscape:cx="441.1181"
     inkscape:cy="635.38329"
     inkscape:window-width="2240"
     inkscape:window-height="1260"
     inkscape:window-x="0"
     inkscape:window-y="0"
     inkscape:window-maximized="0"
     inkscape:current-layer="svg13">
    <inkscape:grid
       id="grid13"
       units="mm"
       originx="76.01236"
       originy="38.217117"
       spacingx="3.7795276"
       spacingy="3.7795277"
       empcolor="#007be5"
       empopacity="0.30196078"
       color="#0099e5"
       opacity="0.14902"
       empspacing="10"
       enabled="true"
       visible="true" />
  </sodipodi:namedview>
  <style
     id="style1">text { font-family: Roboto, Arial, sans-serif !important; }</style>
  <g
     transform="translate(-26.356115,-27.403695)"
     id="g13">
    <!---->
    <!---->
    <!---->
    <!---->
    <!---->
    <path
       class="click-through"
       d="m 309.10547,187.34148 c -4.22752,3.03218 -7.39677,5.58184 -10.98826,8.55375 -3.58598,2.97182 -7.09517,6.06986 -10.52762,9.28294 -3.43797,3.2186 -6.79913,6.55788 -10.07806,10.02322 -3.27892,3.46533 -6.49205,7.05128 -9.61198,10.7744 -3.11991,3.71753 -6.16853,7.56674 -9.11847,11.55298 -2.94441,3.98626 -5.81765,8.10411 -8.56465,12.37547 -2.75257,4.27141 -5.41189,8.67438 -7.92321,13.23635 -2.51124,4.56197 -4.91837,9.27203 -7.13903,14.13558 -2.21515,4.85804 -4.30429,9.87516 -6.15207,15.02931 -1.8533,5.15418 -3.54211,10.46738 -4.94583,15.89569 -1.40919,5.42284 -2.60996,10.99918 -3.48729,16.64682 -0.87727,5.65312 -1.50235,11.43789 -1.78204,17.25002 -0.2796,5.81762 -0.26316,11.73395 0.10971,17.62833 0.37831,5.89438 1.08021,11.86004 2.14391,17.74351 1.0637,5.88886 2.47289,11.79422 4.23298,17.57899 1.76007,5.79024 3.8766,11.54201 6.3166,17.13484 2.44003,5.59284 5.2364,11.10335 8.32889,16.41654 3.09799,5.31319 6.53044,10.50026 10.23161,15.45155 3.70111,4.95125 7.72574,9.73804 11.97515,14.2617 4.25493,4.5236 8.14797,8.41662 13.54341,12.88538 5.39542,4.46875 12.26032,9.72164 18.82367,13.92175 6.56331,4.19458 13.48305,7.97797 20.55086,11.25693 7.06229,3.27886 14.41521,6.1027 21.8339,8.41661 7.41323,2.30841 15.04577,4.13432 22.66736,5.46121 7.62704,1.32696 15.38572,2.14939 23.07311,2.48386 7.6874,0.34 15.42958,0.17546 23.04019,-0.44957 7.61064,-0.61957 15.21029,-1.73816 22.618,-3.27893 7.41324,-1.54079 14.74421,-3.55855 21.84489,-5.95475 7.09521,-2.3906 14.05331,-5.2364 20.74825,-8.41661 6.68947,-3.17476 13.19247,-6.76618 19.3994,-10.6483 6.20695,-3.87656 12.18357,-8.12602 17.84768,-12.62221 5.66409,-4.49071 11.0595,-9.31041 16.14241,-14.32748 5.07738,-5.01707 9.86421,-10.3138 14.32747,-15.76956 4.46874,-5.45573 8.625,-11.15271 12.46871,-16.96488 3.84364,-5.81764 7.36386,-11.82715 10.58245,-17.9299 3.21313,-6.10272 6.10822,-12.35901 8.70722,-18.6811 2.59354,-6.32756 4.87453,-12.77575 6.85942,-19.2678 1.99037,-6.49755 3.66825,-13.08283 5.06647,-19.70097 1.39267,-6.62365 2.48934,-13.3131 3.30631,-20.02995 0.81702,-6.71139 1.44209,-13.48856 1.59015,-20.26029 0.14802,-6.77167 -3e-5,-13.62563 -0.70188,-20.36989 -0.70183,-6.74428 -1.89716,-13.51051 -3.52569,-20.09577 -1.623,-6.57975 -3.72853,-13.11568 -6.22336,-19.40487 -2.49484,-6.28918 -5.45024,-12.45773 -8.74014,-18.34114 -3.29541,-5.88344 -7.01294,-11.57492 -11.01565,-16.94846 -4.0082,-5.37346 -8.39474,-10.5002 -13.01153,-15.28152 -4.61683,-4.78131 -9.56812,-9.2775 -14.68935,-13.40632 -5.12677,-4.12879 -10.52769,-7.9341 -16.04925,-11.37209 -5.5215,-3.43243 -11.26786,-6.52492 -17.08001,-9.24454 -5.81193,-2.72004 -11.79421,-5.08288 -17.79829,-7.08425 -5.99856,-2.00687 -12.11774,-3.64631 -18.21503,-4.94586 -6.09727,-1.2995 -12.26033,-2.23711 -18.37404,-2.85671 -6.10827,-0.6196 -12.2384,-0.89372 -18.29181,-0.87181 -6.05339,0.0222 -12.08487,0.37833 -18.02312,0.99791 -5.93826,0.6196 -11.82168,1.55723 -17.60092,2.73614 -5.77375,1.17886 -11.47623,2.64287 -17.05806,4.33715 -5.58738,1.6888 -11.07599,3.6463 -16.44402,5.80665 -5.36799,2.16584 -10.63181,4.56748 -15.76956,7.17196 -5.14316,2.59903 -10.17124,5.42286 -15.07861,8.4386 -4.90746,3.01572 -10.14387,6.60715 -14.37138,9.63937 z"
       fill=""
       fill-opacity="0"
       stroke="#0000ff"
       stroke-opacity="1"
       stroke-width="0.72"
       stroke-dasharray="none"
       id="path13"
       style="stroke:#0000ff;stroke-width:38.1372;stroke-dasharray:none;stroke-opacity:0.182952" />
    <!---->
    <!---->
    <!---->
    <!---->
    <!---->
    <!---->
    <!---->
    <!---->
    <!---->
    <!---->
    <!---->
  </g>
  <path
     id="rect13"
     style="fill:none;fill-opacity:0.8;stroke:#000000;stroke-width:1.4312;stroke-dasharray:none"
     d="M 92.800938,20.18793 V 586.18598 H 658.79898 V 20.18793 Z" />
  <path
     class="click-through"
     d="m 273.53241,671.19751 c -4.22752,3.03218 -7.39677,5.58184 -10.98826,8.55375 -3.58598,2.97182 -7.09517,6.06986 -10.52762,9.28294 -3.43797,3.2186 -6.79913,6.55788 -10.07806,10.02322 -3.27892,3.46533 -6.49205,7.05128 -9.61198,10.7744 -3.11991,3.71753 -6.16853,7.56674 -9.11847,11.55298 -2.94441,3.98626 -5.81765,8.10411 -8.56465,12.37547 -2.75257,4.27141 -5.41189,8.67438 -7.92321,13.23635 -2.51124,4.56197 -4.91837,9.27203 -7.13903,14.13558 -2.21515,4.85804 -4.30429,9.87516 -6.15207,15.02931 -1.8533,5.15418 -3.54211,10.46738 -4.94583,15.89569 -1.40919,5.42284 -2.60996,10.99918 -3.48729,16.64682 -0.87727,5.65312 -1.50235,11.43789 -1.78204,17.25002 -0.2796,5.81762 -0.26316,11.73395 0.10971,17.62833 0.37831,5.89438 1.08021,11.86004 2.14391,17.74351 1.0637,5.88886 2.47289,11.79422 4.23298,17.57899 1.76007,5.79024 3.8766,11.54201 6.3166,17.13484 2.44003,5.59284 5.2364,11.10335 8.32889,16.41654 3.09799,5.31319 6.53044,10.50026 10.23161,15.45155 3.70111,4.95125 7.72574,9.73804 11.97515,14.2617 4.25493,4.5236 8.14797,8.41662 13.54341,12.88538 5.39542,4.46875 12.26032,9.72164 18.82367,13.92175 6.56331,4.19458 13.48305,7.97797 20.55086,11.25693 7.06229,3.27886 14.41521,6.1027 21.8339,8.41661 7.41323,2.30841 15.04577,4.13432 22.66736,5.46121 7.62704,1.32696 15.38572,2.14939 23.07311,2.48386 7.6874,0.34 15.42958,0.17546 23.04019,-0.44957 7.61064,-0.61957 15.21029,-1.73816 22.618,-3.27893 7.41324,-1.54079 14.74421,-3.55855 21.84489,-5.95475 7.09521,-2.3906 14.05331,-5.2364 20.74825,-8.41661 6.68947,-3.17476 13.19247,-6.76618 19.3994,-10.6483 6.20695,-3.87656 12.18357,-8.12602 17.84768,-12.62221 5.66409,-4.49071 11.0595,-9.31041 16.14241,-14.32748 5.07738,-5.01707 9.86421,-10.3138 14.32747,-15.76956 4.46874,-5.45573 8.625,-11.15271 12.46871,-16.96488 3.84364,-5.81764 7.36386,-11.82715 10.58245,-17.9299 3.21313,-6.10272 6.10822,-12.35901 8.70722,-18.6811 2.59354,-6.32756 4.87453,-12.77575 6.85942,-19.2678 1.99037,-6.49755 3.66825,-13.08283 5.06647,-19.70097 1.39267,-6.62365 2.48934,-13.3131 3.30631,-20.02995 0.81702,-6.71139 1.44209,-13.48856 1.59015,-20.26029 0.14802,-6.77167 -3e-5,-13.62563 -0.70188,-20.36989 -0.70183,-6.74428 -1.89716,-13.51051 -3.52569,-20.09577 -1.623,-6.57975 -3.72853,-13.11568 -6.22336,-19.40487 -2.49484,-6.28918 -5.45024,-12.45773 -8.74014,-18.34114 -3.29541,-5.88344 -7.01294,-11.57492 -11.01565,-16.94846 -4.0082,-5.37346 -8.39474,-10.5002 -13.01153,-15.28152 -4.61683,-4.78131 -9.56812,-9.2775 -14.68935,-13.40632 -5.12677,-4.12879 -10.52769,-7.9341 -16.04925,-11.37209 -5.5215,-3.43243 -11.26786,-6.52492 -17.08001,-9.24454 -5.81193,-2.72004 -11.79421,-5.08288 -17.79829,-7.08425 -5.99856,-2.00687 -12.11774,-3.64631 -18.21503,-4.94586 -6.09727,-1.2995 -12.26033,-2.23711 -18.37404,-2.85671 -6.10827,-0.6196 -12.2384,-0.89372 -18.29181,-0.87181 -6.05339,0.0222 -12.08487,0.37833 -18.02312,0.99791 -5.93826,0.6196 -11.82168,1.55723 -17.60092,2.73614 -5.77375,1.17886 -11.47623,2.64287 -17.05806,4.33715 -5.58738,1.6888 -11.07599,3.6463 -16.44402,5.80665 -5.36799,2.16584 -10.63181,4.56748 -15.76956,7.17196 -5.14316,2.59903 -10.17124,5.42286 -15.07861,8.4386 -4.90746,3.01572 -10.14387,6.60715 -14.37138,9.63937 z"
     fill=""
     fill-opacity="0"
     stroke="#0000ff"
     stroke-opacity="1"
     stroke-width="0.72"
     stroke-dasharray="none"
     id="path13-2"
     style="stroke:#0000ff;stroke-width:38.1372;stroke-dasharray:none;stroke-opacity:0.182952" />
  <path
     id="rect13-6"
     style="fill:none;fill-opacity:0.8;stroke:#000000;stroke-width:1.4312;stroke-dasharray:none"
     d="M 93.482855,531.44765 V 1097.4457 H 659.48089 V 531.44765 Z" />
</svg>
