<svg xmlns="http://www.w3.org/2000/svg" width="1174" height="230.29999999999998" viewBox="-10 -56.1 1174 230.29999999999998"><style>text { font-family: Roboto, Arial, sans-serif !important; }</style>
  <g transform="translate(0 0) scale(1)">
    <!---->
    <!---->
    <!---->
    <!---->
    <path class="click-through" d="M 37.4 156.0 C 96.2 147.7, 77.3 72.2, 136.1 63.9" fill="" fill-opacity="0" stroke="grey" stroke-opacity="0.8" stroke-width="6" stroke-dasharray="" transform=""/>
    <!---->
    <path class="click-through" d="M 136.1 63.9 C 195.0 55.7, 197.6 133.5, 256.4 125.3" fill="" fill-opacity="0" stroke="grey" stroke-opacity="0.8" stroke-width="6" stroke-dasharray="" transform=""/>
    <!---->
    <path class="click-through" d="M 256.4 125.3 C 315.2 117.1, 296.3 41.5, 355.2 33.3" fill="" fill-opacity="0" stroke="grey" stroke-opacity="0.8" stroke-width="6" stroke-dasharray="" transform=""/>
    <!---->
    <path class="click-through" d="M 355.2 33.3 C 414.0 25.0, 416.6 102.9, 475.4 94.6" fill="" fill-opacity="0" stroke="grey" stroke-opacity="0.8" stroke-width="6" stroke-dasharray="" transform=""/>
    <!---->
    <path class="click-through" d="M 475.4 94.6 C 534.3 86.4, 536.9 164.2, 595.7 156.0" fill="" fill-opacity="0" stroke="grey" stroke-opacity="0.8" stroke-width="6" stroke-dasharray="" transform=""/>
    <!---->
    <path class="click-through" d="M 595.7 156.0 C 654.5 147.7, 635.6 72.2, 694.5 63.9" fill="" fill-opacity="0" stroke="lightgreen" stroke-opacity="0.8" stroke-width="6" stroke-dasharray="" transform=""/>
    <!---->
    <path class="click-through" d="M 694.5 63.9 C 753.3 55.7, 755.9 133.5, 814.7 125.3" fill="" fill-opacity="0" stroke="lightgreen" stroke-opacity="0.8" stroke-width="6" stroke-dasharray="" transform=""/>
    <!---->
    <path class="click-through" d="M 814.7 125.3 C 873.5 117.1, 854.7 41.5, 913.5 33.3" fill="" fill-opacity="0" stroke="lightgreen" stroke-opacity="0.8" stroke-width="6" stroke-dasharray="" transform=""/>
    <!---->
    <path class="click-through" d="M 913.5 33.3 C 972.3 25.0, 974.9 102.9, 1033.8 94.6" fill="" fill-opacity="0" stroke="lightgreen" stroke-opacity="0.8" stroke-width="6" stroke-dasharray="" transform=""/>
    <!---->
    <path class="click-through" d="M 1033.8 94.6 C 1092.6 86.4, 1095.2 164.2, 1154.0 156.0" fill="" fill-opacity="0" stroke="lightgreen" stroke-opacity="0.8" stroke-width="6" stroke-dasharray="" transform=""/>
    <!---->
    <path class="click-through" d="M 256.4 84.8 C 315.2 76.6, 296.3 1.0, 355.2 -7.2" fill="" fill-opacity="0" stroke="red" stroke-opacity="0.8" stroke-width="5" stroke-dasharray="" transform=""/>
    <!---->
    <path class="click-through" d="M 355.2 -7.2 C 414.0 -15.5, 416.6 62.4, 475.4 54.1" fill="" fill-opacity="0" stroke="red" stroke-opacity="0.8" stroke-width="5" stroke-dasharray="" transform=""/>
    <!---->
    <path class="click-through" d="M 475.4 54.1 C 534.3 45.9, 515.4 -29.7, 574.2 -37.9" fill="" fill-opacity="0" stroke="red" stroke-opacity="0.8" stroke-width="5" stroke-dasharray="" transform=""/>
    <!---->
    <path class="click-through" d="M 574.2 -37.9 C 633.0 -46.1, 635.6 31.7, 694.5 23.4" fill="" fill-opacity="0" stroke="red" stroke-opacity="0.8" stroke-width="5" stroke-dasharray="" transform=""/>
    <!---->
    <path class="click-through" d="M 694.5 23.4 C 753.3 15.2, 755.9 93.0, 814.7 84.8" fill="" fill-opacity="0" stroke="red" stroke-opacity="0.8" stroke-width="5" stroke-dasharray="" transform=""/>
    <!---->
    <!---->
    <!---->
    <!---->
    <!---->
    <!---->
    <!---->
    <!---->
    <!---->
    <!---->
    <!---->
  </g>
</svg>