<svg xmlns="http://www.w3.org/2000/svg" width="834.7" height="351.79999999999995" viewBox="-10 -177.6 834.7 351.79999999999995"><style>text { font-family: Roboto, Arial, sans-serif !important; }</style>
  <g transform="translate(0 0) scale(1)">
    <!--container-->
    <!--container-->
    <!--container-->
    <!--container-->
    <path class="click-through" d="M 37.4 156.0 C 96.2 147.7, 77.3 72.2, 136.1 63.9" fill="" fill-opacity="0" stroke="grey" stroke-opacity="0.8" stroke-width="6" stroke-dasharray="" transform=""/>
    <!--container-->
    <path class="click-through" d="M 136.1 63.9 C 195.0 55.7, 197.6 133.5, 256.4 125.3" fill="" fill-opacity="0" stroke="grey" stroke-opacity="0.8" stroke-width="6" stroke-dasharray="" transform=""/>
    <!--container-->
    <path class="click-through" d="M 256.4 125.3 C 315.2 117.1, 296.3 41.5, 355.2 33.3" fill="" fill-opacity="0" stroke="grey" stroke-opacity="0.8" stroke-width="6" stroke-dasharray="" transform=""/>
    <!--container-->
    <path class="click-through" d="M 355.2 33.3 C 414.0 25.0, 416.6 102.9, 475.4 94.6" fill="" fill-opacity="0" stroke="grey" stroke-opacity="0.8" stroke-width="6" stroke-dasharray="" transform=""/>
    <!--container-->
    <path class="click-through" d="M 475.4 94.6 C 534.3 86.4, 536.9 164.2, 595.7 156.0" fill="" fill-opacity="0" stroke="grey" stroke-opacity="0.8" stroke-width="6" stroke-dasharray="" transform=""/>
    <!--container-->
    <path class="click-through" d="M 256.4 -36.7 C 315.2 -44.9, 296.3 -120.5, 355.2 -128.7" fill="" fill-opacity="0" stroke="red" stroke-opacity="0.8" stroke-width="5" stroke-dasharray="" transform=""/>
    <!--container-->
    <path class="click-through" d="M 355.2 -128.7 C 414.0 -137.0, 416.6 -59.1, 475.4 -67.4" fill="" fill-opacity="0" stroke="red" stroke-opacity="0.8" stroke-width="5" stroke-dasharray="" transform=""/>
    <!--container-->
    <path class="click-through" d="M 475.4 -67.4 C 534.3 -75.6, 515.4 -151.2, 574.2 -159.4" fill="" fill-opacity="0" stroke="red" stroke-opacity="0.8" stroke-width="5" stroke-dasharray="" transform=""/>
    <!--container-->
    <path class="click-through" d="M 574.2 -159.4 C 633.0 -167.6, 635.6 -89.8, 694.5 -98.1" fill="" fill-opacity="0" stroke="red" stroke-opacity="0.8" stroke-width="5" stroke-dasharray="" transform=""/>
    <!--container-->
    <path class="click-through" d="M 694.5 -98.1 C 753.3 -106.3, 755.9 -28.5, 814.7 -36.7" fill="" fill-opacity="0" stroke="red" stroke-opacity="0.8" stroke-width="5" stroke-dasharray="" transform=""/>
    <!--container-->
    <!--container-->
    <!--container-->
    <!--container-->
    <!--container-->
    <!--container-->
    <!--container-->
    <!--ng-container-->
    <!--container-->
    <!--container-->
    <!--container-->
  </g>
</svg>