<?xml version="1.0" encoding="UTF-8" standalone="no"?>
<svg
   width="998.47589"
   height="531.3714"
   viewBox="-10 -10 998.47587 531.37137"
   version="1.1"
   id="svg5"
   sodipodi:docname="logo.svg"
   inkscape:version="1.4 (e7c3feb1, 2024-10-09)"
   xml:space="preserve"
   xmlns:inkscape="http://www.inkscape.org/namespaces/inkscape"
   xmlns:sodipodi="http://sodipodi.sourceforge.net/DTD/sodipodi-0.dtd"
   xmlns:xlink="http://www.w3.org/1999/xlink"
   xmlns="http://www.w3.org/2000/svg"
   xmlns:svg="http://www.w3.org/2000/svg"><defs
     id="defs5"><symbol
       id="E050-4dp6a2"
       viewBox="0 0 1000 1000"
       overflow="inherit"><path
         transform="scale(1,-1)"
         d="m 562,-21 c 0,89 -65,150 -155,150 7,-44 34,-203 55,-323 71,29 100,102 100,173 z M 420,-206 362,123 C 303,109 258,60 258,-1 c 0,-49 22,-75 61,-99 12,-8 22,-13 22,-22 0,-9 -9,-13 -17,-13 -80,0 -135,96 -135,166 0,94 62,190 153,217 -7,41 -14,88 -23,142 C 304,375 288,361 271,346 183,270 97,161 97,39 c 0,-151 122,-251 265,-251 19,0 38,2 58,6 z M 332,822 c -8,-31 -11,-65 -11,-102 0,-42 5,-81 11,-121 69,68 146,146 146,250 0,69 -24,118 -39,118 -52,0 -98,-105 -107,-145 z M 122,-513 c 0,66 45,123 115,123 75,0 116,-57 116,-111 0,-64 -47,-104 -94,-111 -3,-1 -5,-2 -5,-4 0,-1 2,-2 3,-3 2,0 23,-5 47,-5 101,0 154,55 154,159 0,53 -11,123 -30,219 -23,-4 -50,-7 -79,-7 -186,0 -349,147 -349,334 0,200 126,321 217,406 21,17 73,70 74,71 -17,112 -22,161 -22,215 0,84 18,212 82,288 33,39 64,51 71,51 18,0 47,-35 71,-86 16,-36 44,-110 44,-201 0,-159 -73,-284 -179,-395 9,-56 19,-115 29,-175 146,0 253,-102 253,-253 0,-103 -73,-205 -171,-237 6,-39 12,-69 15,-89 10,-57 16,-102 16,-141 0,-63 -14,-129 -68,-167 -36,-22 -77,-34 -124,-34 -135,0 -186,87 -186,153 z"
         id="path1-2" /></symbol><symbol
       id="E262-4dp6a2"
       viewBox="0 0 1000 1000"
       overflow="inherit"><path
         transform="scale(1,-1)"
         d="M 233,105 195,98 V -67 l 33,7 h 2 c 8,0 14,-6 14,-14 v -59 c 0,-6 -5,-13 -11,-14 l -38,-7 v -147 h -28 v 141 L 78,-178 V -333 H 50 v 149 l -33,-7 h -3 c -8,0 -14,6 -14,14 v 58 c 0,6 5,13 11,14 l 39,8 V 68 L 17,61 H 14 C 6,61 0,67 0,75 v -2 58 2 c 0,6 5,13 11,14 l 39,8 V 302 H 78 V 161 l 89,18 v 155 h 28 V 185 l 33,7 h 2 c 8,0 14,-6 14,-14 v -59 c 0,-6 -5,-13 -11,-14 z M 78,74 V -92 l 89,19 V 92 Z"
         id="path2-2" /></symbol></defs><sodipodi:namedview
     id="namedview5"
     pagecolor="#ffffff"
     bordercolor="#000000"
     borderopacity="0.25"
     inkscape:showpageshadow="2"
     inkscape:pageopacity="0.0"
     inkscape:pagecheckerboard="0"
     inkscape:deskcolor="#d1d1d1"
     inkscape:zoom="1.2127737"
     inkscape:cx="613.88206"
     inkscape:cy="373.11166"
     inkscape:window-width="2240"
     inkscape:window-height="1260"
     inkscape:window-x="0"
     inkscape:window-y="0"
     inkscape:window-maximized="0"
     inkscape:current-layer="svg5"
     showgrid="true"><inkscape:grid
       id="grid48"
       units="px"
       originx="98.744655"
       originy="194.85796"
       spacingx="3.9999997"
       spacingy="3.9999998"
       empcolor="#0099e5"
       empopacity="0.30196078"
       color="#0099e5"
       opacity="0.14902"
       empspacing="5"
       enabled="true"
       visible="true"
       dotted="false" /></sodipodi:namedview><style
     id="style1">text { font-family: Roboto, Arial, sans-serif !important; }</style><g
     id="g28"
     inkscape:tile-cx="313.6983"
     inkscape:tile-cy="119.09343"
     inkscape:tile-w="559.13366"
     inkscape:tile-h="129.90558"
     inkscape:tile-x0="34.133948"
     inkscape:tile-y0="54.140529"
     transform="matrix(1.5,0,0,1.5,44.94797,159.19412)"><path
       class="click-through"
       d="m 37.4,173.5 c 58.8,-8.2 39.9,-83.8 98.7,-92"
       fill=""
       fill-opacity="0"
       stroke="#808080"
       stroke-opacity="0.8"
       stroke-width="6"
       stroke-dasharray="none"
       id="path1" /><path
       class="click-through"
       d="m 136.1,81.5 c 58.9,-8.2 61.5,69.6 120.3,61.3"
       fill=""
       fill-opacity="0"
       stroke="#808080"
       stroke-opacity="0.8"
       stroke-width="6"
       stroke-dasharray="none"
       id="path2" /><path
       class="click-through"
       d="m 256.4,142.8 c 58.8,-8.2 39.9,-83.7 98.8,-92"
       fill=""
       fill-opacity="0"
       stroke="#808080"
       stroke-opacity="0.8"
       stroke-width="6"
       stroke-dasharray="none"
       id="path3" /><path
       class="click-through"
       d="m 355.2,50.8 c 58.8,-8.2 61.4,69.6 120.2,61.4"
       fill=""
       fill-opacity="0"
       stroke="#808080"
       stroke-opacity="0.8"
       stroke-width="6"
       stroke-dasharray="none"
       id="path4" /><path
       class="click-through"
       d="m 475.4,112.2 c 58.9,-8.3 61.5,69.6 120.3,61.3"
       fill=""
       fill-opacity="0"
       stroke="#808080"
       stroke-opacity="0.8"
       stroke-width="6"
       stroke-dasharray="none"
       id="path5" /></g><use
     x="0"
     y="0"
     inkscape:tiled-clone-of="#g28"
     xlink:href="#g28"
     transform="translate(0,-60.000005)"
     id="use45" /><use
     x="0"
     y="0"
     inkscape:tiled-clone-of="#g28"
     xlink:href="#g28"
     transform="translate(0,-120)"
     id="use46" /><use
     x="0"
     y="0"
     inkscape:tiled-clone-of="#g28"
     xlink:href="#g28"
     transform="translate(0,-180)"
     id="use47" /><use
     x="0"
     y="0"
     inkscape:tiled-clone-of="#g28"
     xlink:href="#g28"
     transform="translate(0,-240)"
     id="use48" /><rect
     style="fill:none;stroke:none;stroke-width:1.5;stroke-opacity:1"
     id="rect5"
     width="929.67206"
     height="302.60257"
     x="58.803864"
     y="108.86629" /><style
     type="text/css"
     id="style2">g.page-margin{font-family:Times;} g.ending, g.fing, g.reh, g.tempo{font-weight:bold;} g.dir, g.dynam, g.mNum{font-style:italic;} g.label{font-weight:normal;}</style><g
     class="page-margin"
     id="g12"
     style="color:#000000;fill:#808080;fill-opacity:0.8;stroke:none"
     transform="matrix(0.414,0,0,0.414,-47.26,-124.26988)"><g
       id="musre60"
       class="mdiv pageMilestone"
       style="fill:#808080;fill-opacity:0.8;stroke:none" /><g
       id="sz57cc6"
       class="score pageMilestone"
       style="fill:#808080;fill-opacity:0.8;stroke:none" /><g
       id="sbqjjba"
       class="system"
       style="fill:#808080;fill-opacity:0.8;stroke:none"><g
         id="squioa"
         class="section systemMilestone"
         style="fill:#808080;fill-opacity:0.8;stroke:none" /><g
         id="s3xrln8"
         class="staff"
         style="display:inline;fill:#808080;fill-opacity:0.8;stroke:none"><path
           d="M 0,540 H 3193"
           stroke="currentColor"
           stroke-width="18"
           id="path3-7"
           style="display:none;fill:#808080;fill-opacity:0.8;stroke:none" /><path
           d="M 0,720 H 3193"
           stroke="currentColor"
           stroke-width="18"
           id="path4-3"
           style="display:none;fill:#808080;fill-opacity:0.8;stroke:none" /><path
           d="M 0,900 H 3193"
           stroke="currentColor"
           stroke-width="18"
           id="path5-7"
           style="display:none;fill:#808080;fill-opacity:0.8;stroke:none" /><path
           d="M 0,1080 H 3193"
           stroke="currentColor"
           stroke-width="18"
           id="path6"
           style="display:none;fill:#808080;fill-opacity:0.8;stroke:none" /><path
           d="M 0,1260 H 3193"
           stroke="currentColor"
           stroke-width="18"
           id="path7"
           style="display:none;fill:#808080;fill-opacity:0.8;stroke:none" /><g
           id="c20kyba"
           class="clef"
           inkscape:label="lines"
           style="fill:#808080;fill-opacity:0.8;stroke:none"><use
             xlink:href="#E050-4dp6a2"
             x="90"
             y="1080"
             height="720"
             width="720"
             id="use7"
             style="fill:#808080;fill-opacity:0.8;stroke:none" /></g><g
           id="k3zhdo4"
           class="keySig"
           inkscape:label="sharps"
           style="fill:#808080;fill-opacity:0.8;stroke:none"><use
             xlink:href="#E262-4dp6a2"
             x="730"
             y="540"
             height="720"
             width="720"
             id="use8"
             style="display:none;fill:#808080;fill-opacity:0.8;stroke:none" /><use
             xlink:href="#E262-4dp6a2"
             x="942"
             y="810"
             height="720"
             width="720"
             id="use9"
             style="display:none;fill:#808080;fill-opacity:0.8;stroke:none" /><use
             xlink:href="#E262-4dp6a2"
             x="1154"
             y="450"
             height="720"
             width="720"
             id="use10"
             style="display:none;fill:#808080;fill-opacity:0.8;stroke:none" /><use
             xlink:href="#E262-4dp6a2"
             x="1366"
             y="720"
             height="720"
             width="720"
             id="use11"
             style="display:none;fill:#808080;fill-opacity:0.8;stroke:none" /><use
             xlink:href="#E262-4dp6a2"
             x="1578"
             y="990"
             height="720"
             width="720"
             id="use12"
             style="display:none;fill:#808080;fill-opacity:0.8;stroke:none" /></g><g
           id="lk2j5zn"
           class="layer"
           style="fill:#808080;fill-opacity:0.8;stroke:none" /></g><g
         id="s8rh6fu"
         class="systemMilestoneEnd squioa"
         style="fill:#808080;fill-opacity:0.8;stroke:none" /></g><g
       id="p1g3td5"
       class="pageMilestoneEnd sz57cc6"
       style="fill:#808080;fill-opacity:0.8;stroke:none" /><g
       id="pxovm0b"
       class="pageMilestoneEnd musre60"
       style="fill:#808080;fill-opacity:0.8;stroke:none" /><g
       id="pmqqus4"
       class="pgHead autogenerated"
       style="fill:#808080;fill-opacity:0.8;stroke:none" /></g></svg>
