<svg xmlns="http://www.w3.org/2000/svg" width="908.4" height="207.9" viewBox="-10 -10 908.4 207.9"><style>text { font-family: Roboto, Arial, sans-serif !important; }</style>
  <g transform="translate(0 0) scale(1)">
    <!---->
    <!---->
    <!---->
    <!---->
    <path class="click-through" d="M 103.8 182.1 C 153.9 176.3, 126.0 134.2, 176.1 128.5" fill="" fill-opacity="0" stroke="grey" stroke-opacity="0.8" stroke-width="6" stroke-dasharray="" transform=""/>
    <!---->
    <path class="click-through" d="M 176.1 128.5 C 226.2 122.7, 208.6 170.0, 258.7 164.2" fill="" fill-opacity="0" stroke="grey" stroke-opacity="0.8" stroke-width="6" stroke-dasharray="" transform=""/>
    <!---->
    <path class="click-through" d="M 258.7 164.2 C 308.8 158.4, 280.9 116.4, 331.0 110.6" fill="" fill-opacity="0" stroke="grey" stroke-opacity="0.8" stroke-width="6" stroke-dasharray="" transform=""/>
    <!---->
    <path class="click-through" d="M 331.0 110.6 C 381.0 104.8, 363.5 152.1, 413.5 146.3" fill="" fill-opacity="0" stroke="grey" stroke-opacity="0.8" stroke-width="6" stroke-dasharray="" transform=""/>
    <!---->
    <path class="click-through" d="M 413.5 146.3 C 463.6 140.6, 446.1 187.9, 496.1 182.1" fill="" fill-opacity="0" stroke="grey" stroke-opacity="0.8" stroke-width="6" stroke-dasharray="" transform=""/>
    <!---->
    <path class="click-through" d="M 496.1 182.1 C 546.2 176.3, 518.3 134.2, 568.4 128.5" fill="" fill-opacity="0" stroke="lightgreen" stroke-opacity="0.8" stroke-width="6" stroke-dasharray="" transform=""/>
    <!---->
    <path class="click-through" d="M 568.4 128.5 C 618.5 122.7, 600.9 170.0, 651.0 164.2" fill="" fill-opacity="0" stroke="lightgreen" stroke-opacity="0.8" stroke-width="6" stroke-dasharray="" transform=""/>
    <!---->
    <path class="click-through" d="M 651.0 164.2 C 701.1 158.4, 673.2 116.4, 723.3 110.6" fill="" fill-opacity="0" stroke="lightgreen" stroke-opacity="0.8" stroke-width="6" stroke-dasharray="" transform=""/>
    <!---->
    <path class="click-through" d="M 723.3 110.6 C 773.3 104.8, 755.8 152.1, 805.9 146.3" fill="" fill-opacity="0" stroke="lightgreen" stroke-opacity="0.8" stroke-width="6" stroke-dasharray="" transform=""/>
    <!---->
    <path class="click-through" d="M 805.9 146.3 C 855.9 140.6, 838.4 187.9, 888.4 182.1" fill="" fill-opacity="0" stroke="lightgreen" stroke-opacity="0.8" stroke-width="6" stroke-dasharray="" transform=""/>
    <!---->
    <!---->
    <!---->
    <!---->
    <!---->
    <!---->
    <!---->
    <!---->
    <!---->
    <!---->
    <!---->
  </g>
</svg>